HIERARCHY
ROOT Hips
{
  OFFSET 3.13124 94.3669 -3.18751
  CHANNELS  6 Xposition Yposition Zposition Zrotation Xrotation Yrotation
  JOINT LeftUpLeg
  {
    OFFSET 8.64259 1.95398 -2.38835
    CHANNELS 3 Zrotation Xrotation Yrotation
    JOINT LeftLeg
    {
      OFFSET 43.7702 0 0
      CHANNELS 3 Zrotation Xrotation Yrotation
      JOINT LeftFoot
      {
        OFFSET 40.6238 0 0
        CHANNELS 3 Zrotation Xrotation Yrotation
        JOINT LeftToeBase
        {
          OFFSET 12.7242 0 0
          CHANNELS 3 Zrotation Xrotation Yrotation
          End Site
          {
            OFFSET 0 0 0
          }
        }
      }
    }
  }
  JOINT RightUpLeg
  {
    OFFSET -8.2249 1.95398 -2.59336
    CHANNELS 3 Zrotation Xrotation Yrotation
    JOINT RightLeg
    {
      OFFSET 43.5653 0 0
      CHANNELS 3 Zrotation Xrotation Yrotation
      JOINT RightFoot
      {
        OFFSET 40.6238 0 0
        CHANNELS 3 Zrotation Xrotation Yrotation
        JOINT RightToeBase
        {
          OFFSET 12.7242 0 0
          CHANNELS 3 Zrotation Xrotation Yrotation
          End Site
          {
            OFFSET 0 0 0
          }
        }
      }
    }
  }
  JOINT Spine
  {
    OFFSET 0.165834 0.87714 6.61349
    CHANNELS 3 Zrotation Xrotation Yrotation
    JOINT Spine1
    {
      OFFSET 7.38962 1.71661e-005 0
      CHANNELS 3 Zrotation Xrotation Yrotation
      JOINT Spine2
      {
        OFFSET 11.9445 1.14441e-005 0
        CHANNELS 3 Zrotation Xrotation Yrotation
        JOINT Spine3
        {
          OFFSET 14.7254 4.19617e-005 0
          CHANNELS 3 Zrotation Xrotation Yrotation
          JOINT Spine4
          {
            OFFSET 10.9679 0 0
            CHANNELS 3 Zrotation Xrotation Yrotation
            JOINT RightShoulder
            {
              OFFSET 2.46616 -1.6653 3.69651
              CHANNELS 3 Zrotation Xrotation Yrotation
              JOINT RightArm
              {
                OFFSET 13.0012 0 0
                CHANNELS 3 Zrotation Xrotation Yrotation
                JOINT RightForeArm
                {
                  OFFSET 28.7848 1.52588e-005 0
                  CHANNELS 3 Zrotation Xrotation Yrotation
                  JOINT RightHand
                  {
                    OFFSET 26.5688 1.52588e-005 0
                    CHANNELS 3 Zrotation Xrotation Yrotation
                    End Site
                    {
                      OFFSET 0 0 0
                    }
                  }
                }
              }
            }
            JOINT LeftShoulder
            {
              OFFSET 2.38034 -1.29275 -3.75231
              CHANNELS 3 Zrotation Xrotation Yrotation
              JOINT LeftArm
              {
                OFFSET 16.3182 6.10352e-005 0
                CHANNELS 3 Zrotation Xrotation Yrotation
                JOINT LeftForeArm
                {
                  OFFSET 27.0901 0 0
                  CHANNELS 3 Zrotation Xrotation Yrotation
                  JOINT LeftHand
                  {
                    OFFSET 24.5451 1.52588e-005 0
                    CHANNELS 3 Zrotation Xrotation Yrotation
                    End Site
                    {
                      OFFSET 0 0 0
                    }
                  }
                }
              }
            }
            JOINT Neck
            {
              OFFSET 5.0226 -0.0266342 0
              CHANNELS 3 Zrotation Xrotation Yrotation
              JOINT Head
              {
                OFFSET 6.69363 2.86102e-005 0
                CHANNELS 3 Zrotation Xrotation Yrotation
                End Site
                {
                  OFFSET 0 0 0
                }
              }
            }
          }
        }
      }
    }
  }
}
MOTION
Frames:	6
Frame Time:	0.0333333
67.6068 87.9194 9.86305 94.1606 -76.5212 96.6618 -171.292 16.139 94.6131 -32.7621 9.69383 7.12994 74.1158 0.155312 0.122568 28.7808 5.30548e-006 2.35571e-006 -163.958 40.6095 69.4022 -130.811 -6.74527 -3.00003 22.1425 -6.77423 -6.73933 28.7808 1.44536e-005 1.25486e-005 2.59897 7.6511 -88.7022 11.7937 4.23028 -2.26376 0.127278 4.12657 -2.44792 -22.4594 4.7147 -0.885468 -2.44676 4.7147 -0.885487 89.0154 -37.0364 -106.087 45.8685 -9.93587 13.7938 -32.2304 -4.61262 -84.7279 60.208 23.6074 33.8613 -135.594 -68.7043 28.5681 -17.5452 -16.2537 -9.95903 1.9576 -18.4558 -2.96099 1.27616 -1.14154 -37.7215 -3.37598 -3.88654 47.1217 -23.8262 -5.41305 -21.0967 
66.8785 87.8879 10.291 93.3624 -77.5392 96.0769 -171.086 16.0977 95.4047 -32.5036 9.0259 7.00118 74.3908 -0.396731 -0.110625 28.7808 5.30548e-006 2.35571e-006 -162.744 40.4547 68.05 -130.45 -2.72197 -2.71685 27.8482 -2.89745 -1.92721 28.7808 1.44536e-005 1.25486e-005 2.54756 7.60295 -88.8085 11.8836 4.11999 -2.3882 0.216623 4.0109 -2.56736 -22.3664 4.64691 -1.03756 -2.3537 4.6469 -1.03758 88.7854 -37.7979 -106.236 45.9464 -9.79976 14.8634 -44.2309 -5.68575 -86.2857 67.1283 19.2642 23.3452 -135.959 -68.4656 28.0335 -20.22 -15.1673 -11.6519 2.0076 -15.049 -3.01755 10.0753 -2.46576 -25.5681 -2.22611 -5.48051 46.0799 -19.6239 -8.01377 -21.4548 
66.0323 87.9642 10.766 93.9004 -78.0802 97.1208 -170.742 15.7948 96.5571 -32.0717 8.73524 7.02935 74.4457 -0.692456 -0.233151 28.7808 5.30548e-006 2.35571e-006 -163.029 39.4698 67.6979 -126.372 2.38089 -2.27436 30.7617 -1.42151 -0.357364 28.7808 1.44536e-005 1.25486e-005 2.44078 7.57002 -88.965 11.9362 3.89337 -2.5485 0.268238 3.77747 -2.71745 -22.3073 4.47899 -1.25901 -2.29468 4.47898 -1.259 89.0059 -38.9866 -105.461 45.4941 -8.94965 14.3176 -53.4034 -7.50209 -86.5188 67.2364 15.4269 17.8525 -135.82 -68.0318 27.9462 -21.0941 -14.763 -13.0764 2.0435 -12.6448 -3.03224 12.4632 -0.999499 -11.365 -1.08073 -6.64555 44.6845 -16.059 -9.99227 -21.9377 
65.0753 88.164 11.3627 94.5262 -78.8119 98.357 -170.222 15.1315 98.03 -30.9425 8.71465 6.86055 74.2069 -1.31928 -0.519651 28.7808 5.30548e-006 2.35571e-006 -163.351 38.3524 66.7262 -119.784 3.35636 -2.0217 31.756 -1.39255 -0.332065 28.7808 1.44536e-005 1.25486e-005 2.32948 7.5406 -89.1935 11.9794 3.72658 -2.72459 0.310621 3.60308 -2.88601 -22.2589 4.37285 -1.47743 -2.24627 4.37285 -1.47744 89.1775 -39.4545 -105.014 45.1582 -8.03181 13.6661 -51.9764 -8.65611 -85.2004 59.7928 13.8999 18.6167 -135.512 -67.4167 27.9448 -14.0505 -17.0522 4.21543 6.32967 65.2457 -7.42208 12.5994 -1.20342 -12.8131 0.229071 -7.54808 43.4406 -12.9364 -11.6847 -22.6423 
64.0546 88.3556 11.9762 93.9548 -79.9612 98.3476 -169.556 14.5641 99.5684 -29.5602 8.62551 6.45418 73.85 -1.83632 -0.771428 28.7808 5.30548e-006 2.35571e-006 -164.421 37.2377 66.0356 -110.428 6.12049 -1.614 32.7154 -3.13493 -2.09949 28.7808 1.44536e-005 1.25486e-005 2.23247 7.50154 -89.396 12.0468 3.65074 -2.86488 0.377496 3.52116 -3.02277 -22.1886 4.34271 -1.63426 -2.17597 4.34271 -1.63428 89.393 -40.875 -104.208 44.0198 -6.54324 12.0284 -46.3979 -9.21873 -83.0649 53.6612 13.3394 20.6248 -134.15 -66.8921 29.1589 -14.6913 -16.9219 3.19101 6.33965 65.2927 -7.43207 9.77002 -0.269158 -6.06988 1.82456 -7.95946 42.3177 -10.4288 -12.8925 -23.613 
63.0416 88.6435 12.4412 90.0471 -81.1412 94.636 -169.11 13.9192 100.531 -27.078 8.11424 5.96913 72.8977 -2.54291 -1.12663 28.7808 5.30548e-006 2.35571e-006 -164.608 35.9143 63.037 -99.7814 -4.5621 -1.94384 34.0251 -2.32289 -1.26223 28.7808 1.44536e-005 1.25486e-005 2.10507 7.43395 -89.7311 12.1553 3.57058 -2.89569 0.485703 3.43978 -3.05015 -22.0781 4.27507 -1.68694 -2.06547 4.27506 -1.68695 89.4867 -41.7952 -103.778 42.4403 -4.14992 10.1015 -39.1597 -9.81807 -79.5299 50.7491 10.2282 15.8867 -131.958 -66.47 31.3904 -14.7098 -16.9317 2.63771 6.69507 66.8122 -7.78852 7.52023 -0.208417 -5.71275 3.62337 -7.93447 41.3968 -8.21204 -13.7353 -24.2329 
